# xmcd CD database file
#
# Track frame offsets:
#	182
#	29932
#	47542
#	63172
#	90200
#	110032
#	121737
#	142062
#	173877
#	196285
#	217692
#	248715
#	271220
#
# Disc length: 4199 seconds
#
# Revision: 0
# Processed by: cddbd v1.5.1PL0 Copyright (c) Steve Scherf et al.
# Submitted via: CDex 1.51
#
DISCID=b210650d
DTITLE=Various Artist - Listener's Guide To Laik vol. 2
DYEAR=1900
DGENRE=Jazz
TTITLE0=Benny Bailey Quartet - Johanna's Waltz
TTITLE1=Christof Sanger Trio - Maytanca
TTITLE2=Wayne Bartlett - I'd rather ride an elephant
TTITLE3=Deborah Henson-Conant - The Phoenix
TTITLE4=Kol Simcha - Lullaby
TTITLE5=Ulli Bogershausen - Children's dance
TTITLE6=Reinhold Westerheide - Silent Home
TTITLE7=Deborah Hanson-Conant - Baroque flamenco
TTITLE8=Thomas Kessler - Violent song
TTITLE9=Thomas Kessler - Rain
TTITLE10=Mario Neukirchen - Detailed instruction
TTITLE11=Asita Hamidi - Kilele
TTITLE12=Benny Bailey Quartet - Blues for lady J.
EXTD=
EXTT0=
EXTT1=
EXTT2=
EXTT3=
EXTT4=
EXTT5=
EXTT6=
EXTT7=
EXTT8=
EXTT9=
EXTT10=
EXTT11=
EXTT12=
PLAYORDER=
